<?xml version="1.0" encoding="utf-8"?>
<!-- Generator: Adobe Illustrator 22.0.1, SVG Export Plug-In . SVG Version: 6.00 Build 0)  -->
<svg version="1.1" id="Layer_1" xmlns="http://www.w3.org/2000/svg" xmlns:xlink="http://www.w3.org/1999/xlink" x="0px" y="0px"
	 viewBox="0 0 1366 768" style="enable-background:new 0 0 1366 768;" xml:space="preserve">
<g>
	<g>
		<path d="M543.6,350.2c-9-6.6-8.6-15.5-7.8-24.6c1.6-18.1,19.7-48,46-53c10.8-2.1,22.1-1.4,34.2-2c-1.2,5.1-2.1,8.6-2.8,12.3
			c-4.7,23.8-9.1,47.6-14.1,71.3c-4.7,22.6-18.3,37.6-40.4,44.3c-9.1,2.8-18.5,2.3-27.5-0.6c-14.1-4.6-18.5-16.7-9.5-28.6
			c4.5-6,11-10.5,16.6-15.5C539.6,352.5,541.5,351.6,543.6,350.2z M592,313.5c-0.4-0.1-0.8-0.1-1.2-0.2c-2.3,4-4.3,8.2-6.9,12
			c-7.3,11.2-15.9,21.1-29.3,25.1c-9.9,2.9-16.5,9.7-21.6,18.1c-4.3,7.1-2.6,14.4,4,19.4c6.5,5,14,6.7,22.1,5.5
			c12.8-1.8,19.6-10.7,22.5-22c3.6-13.9,5.6-28.3,8.2-42.5C590.8,323.8,591.3,318.6,592,313.5z M598,282.5c-18.3-9-31-4.8-38.9,13.3
			c-3.3,7.6-5.8,15.6-7.6,23.6c-1.2,5-0.9,10.5-0.4,15.7c0.4,4.2,3.7,6.1,7.7,4.7c3.4-1.1,7.2-2.6,9.4-5.2
			c7.5-8.8,14.4-18.2,21.6-27.3C595.5,300.3,596.6,291.5,598,282.5z"/>
		<path d="M758.2,310.2c1.9-3.2,3.4-6.6,5.7-9.5c6.5-8.1,13-16.4,20.1-23.9c4.3-4.5,10.1-7,16.7-6.9c6.8,0.1,11.6,3.9,11.2,10.6
			c-0.7,10.4-2.7,20.7-4.4,31c-1.4,8.7-3.5,17.3-4.9,26c-0.3,2.2,0.2,5.6,1.6,6.6c1.5,1.1,5.1,0.7,6.9-0.4
			c5.5-3.6,10.6-7.9,16.8-12.7c-0.6,2.3-0.6,4.5-1.7,5.7c-6.6,7.4-14,13.8-24.1,16.1c-9.5,2.2-15.4-2.4-14.1-12.2
			c1.8-13.8,4.9-27.5,7.4-41.2c0.7-3.9,1.6-7.8,1.8-11.8c0.4-6.2-2.9-8.6-8.4-5.6c-4.4,2.4-8.9,5.6-11.9,9.6
			c-7.8,10.5-15.6,21.2-21.8,32.7c-3.3,6.2-3.5,14.1-5.1,21.2c-0.4,1.8-0.8,3.6-1.2,5.7c-4.9,0.3-9.8,0.7-15.3,1.1
			c2.3-10.5,4.7-20.5,6.7-30.5c2.5-12,4.8-24.1,6.9-36.2c0.4-2.2-0.1-5.6-1.5-6.6c-1.5-1.1-5.1-0.7-6.9,0.5
			c-5.6,3.8-10.8,8.2-16.9,12.9c0.6-2.2,0.5-4.4,1.5-5.6c6.3-6.9,13.1-13.4,22.5-15.9c11.3-3,16.9,1.2,15.9,12.8
			c-0.8,8.8-3,17.4-4.6,26.1C757.7,309.8,757.9,310,758.2,310.2z"/>
		<path d="M708.5,270.5c-4.6,22.6-8.9,43.4-12.9,64.3c-0.6,3.1,0.7,6.5,1.1,9.8c3.4-0.9,7.3-1,10.1-2.8c4.6-3,8.6-7.1,14-11.8
			c-1,3.2-1,5.5-2.1,6.7c-6.5,6.9-13.6,13.3-23.2,15.8c-10.9,2.8-17-2.8-15.2-13.9c1.2-7.4,2.8-14.7,4.1-22.1
			c0.3-1.5,0.4-3.1,0.6-4.7c-5.3,8.1-9.8,16.5-15.8,23.6c-4.8,5.8-10.7,11.2-17.2,14.8c-13.4,7.6-25.3,0.4-25-14.9
			c0.1-7.3,1.2-15.1,3.9-21.8c8-19.7,20.6-35.9,42.4-40.8C684.7,270.2,696.6,271.2,708.5,270.5z M692,282.9
			c-22.2-10.2-32.8-3-40,11.9c-5.1,10.7-9,21.8-9.4,33.9c-0.1,4.8-0.9,10.4,4.2,12.9c4.9,2.3,8.9-1.5,12.4-4.6
			c10.5-9.2,19.1-20.1,25.4-32.4C688.1,297.8,689.7,290,692,282.9z"/>
		<path d="M516.1,270.9c-4.4,21.4-8.4,41.3-12.4,61.1c-0.4,2-1,3.9-0.9,5.9c0.1,2.2,0.1,5.2,1.4,6.2c1.4,1,4.8,0.9,6.4-0.2
			c6-4,11.6-8.7,18.5-13.9c-1.6,3.3-2.4,6.2-4.1,8.1c-6.1,6.5-12.8,12.1-21.8,14.3c-10.4,2.6-16.1-1.8-15.1-12.4
			c0.8-8.4,2.8-16.7,4.3-25c0.2-1.1,0.3-2.2-0.2-3.6c-0.7,1.2-1.4,2.5-2,3.7c-5.9,11.9-13,22.9-23.7,31c-3.5,2.7-7.6,4.9-11.8,6.1
			c-10.5,3.2-18.6-2.7-19.7-13.5c-1.8-18.9,5.9-34.4,17.7-48.2c11.5-13.4,25.9-20.4,43.9-19.8C503,271.1,509.4,270.9,516.1,270.9z
			 M499,281.6c-5.4-1.2-10.6-2.8-15.9-3.4c-7.5-0.9-13.9,2.1-18.2,8.2c-9.8,14-15,29.6-14.7,46.7c0.1,9,6.4,12.1,13.3,6.3
			C481.2,324.3,495.9,307,499,281.6z"/>
		<path d="M342.3,347.2c3.9-3.6,7.4-6.7,11-10c6.6,5.2,14.5,9.1,23.7,10.3c13.5,1.8,25.1-6.2,26.2-18.4c0.5-5.8-1.8-10.6-5.5-14.5
			c-5.8-6-12-11.4-18.1-17.1c-2.5-2.4-5.2-4.7-7.6-7.2c-9.3-9.3-10.6-21.3-3.4-32.5c9.1-14.2,27.8-21,45.2-16.5
			c4.5,1.2,8.8,2.8,13.4,4.4c-1.1,5.8-1.9,11.1-3.3,16.4c-0.3,1.3-2.4,2.1-5,4.1c0.8-10.6-3.2-16.6-11.6-19
			c-8.9-2.6-17.5-1.8-24.8,4.7c-7.5,6.8-8.7,16.9-2,24.5c5.6,6.3,12.3,11.7,18.5,17.5c3.9,3.7,8,7.1,11.3,11.2
			c8.5,10.5,7.7,23.5-1.6,33.4c-14.6,15.6-39.3,19.9-61.5,10.8C345.8,348.8,344.5,348.1,342.3,347.2z"/>
	</g>
</g>
</svg>
