<?xml version="1.0" encoding="UTF-8"?>
<svg width="486px" height="162px" viewBox="0 0 486 162" version="1.1" xmlns="http://www.w3.org/2000/svg" xmlns:xlink="http://www.w3.org/1999/xlink">
    <!-- Generator: Sketch 50.2 (55047) - http://www.bohemiancoding.com/sketch -->
    <title>logo_sagan</title>
    <desc>Created with Sketch.</desc>
    <defs></defs>
    <g id="Page-1" stroke="none" stroke-width="1" fill="none" fill-rule="evenodd">
        <g id="logo_sagan" fill="#000000" fill-rule="nonzero">
            <path d="M201.6,111.2 C192.6,104.6 193,95.7 193.8,86.6 C195.4,68.5 213.5,38.6 239.8,33.6 C250.6,31.5 261.9,32.2 274,31.6 C272.8,36.7 271.9,40.2 271.2,43.9 C266.5,67.7 262.1,91.5 257.1,115.2 C252.4,137.8 238.8,152.8 216.7,159.5 C207.6,162.3 198.2,161.8 189.2,158.9 C175.1,154.3 170.7,142.2 179.7,130.3 C184.2,124.3 190.7,119.8 196.3,114.8 C197.6,113.5 199.5,112.6 201.6,111.2 Z M250,74.5 C249.6,74.4 249.2,74.4 248.8,74.3 C246.5,78.3 244.5,82.5 241.9,86.3 C234.6,97.5 226,107.4 212.6,111.4 C202.7,114.3 196.1,121.1 191,129.5 C186.7,136.6 188.4,143.9 195,148.9 C201.5,153.9 209,155.6 217.1,154.4 C229.9,152.6 236.7,143.7 239.6,132.4 C243.2,118.5 245.2,104.1 247.8,89.9 C248.8,84.8 249.3,79.6 250,74.5 Z M256,43.5 C237.7,34.5 225,38.7 217.1,56.8 C213.8,64.4 211.3,72.4 209.5,80.4 C208.3,85.4 208.6,90.9 209.1,96.1 C209.5,100.3 212.8,102.2 216.8,100.8 C220.2,99.7 224,98.2 226.2,95.6 C233.7,86.8 240.6,77.4 247.8,68.3 C253.5,61.3 254.6,52.5 256,43.5 Z" id="Shape"></path>
            <path d="M416.2,71.2 C418.1,68 419.6,64.6 421.9,61.7 C428.4,53.6 434.9,45.3 442,37.8 C446.3,33.3 452.1,30.8 458.7,30.9 C465.5,31 470.3,34.8 469.9,41.5 C469.2,51.9 467.2,62.2 465.5,72.5 C464.1,81.2 462,89.8 460.6,98.5 C460.3,100.7 460.8,104.1 462.2,105.1 C463.7,106.2 467.3,105.8 469.1,104.7 C474.6,101.1 479.7,96.8 485.9,92 C485.3,94.3 485.3,96.5 484.2,97.7 C477.6,105.1 470.2,111.5 460.1,113.8 C450.6,116 444.7,111.4 446,101.6 C447.8,87.8 450.9,74.1 453.4,60.4 C454.1,56.5 455,52.6 455.2,48.6 C455.6,42.4 452.3,40 446.8,43 C442.4,45.4 437.9,48.6 434.9,52.6 C427.1,63.1 419.3,73.8 413.1,85.3 C409.8,91.5 409.6,99.4 408,106.5 C407.6,108.3 407.2,110.1 406.8,112.2 C401.9,112.5 397,112.9 391.5,113.3 C393.8,102.8 396.2,92.8 398.2,82.8 C400.7,70.8 403,58.7 405.1,46.6 C405.5,44.4 405,41 403.6,40 C402.1,38.9 398.5,39.3 396.7,40.5 C391.1,44.3 385.9,48.7 379.8,53.4 C380.4,51.2 380.3,49 381.3,47.8 C387.6,40.9 394.4,34.4 403.8,31.9 C415.1,28.9 420.7,33.1 419.7,44.7 C418.9,53.5 416.7,62.1 415.1,70.8 C415.7,70.8 415.9,71 416.2,71.2 Z" id="Shape"></path>
            <path d="M366.5,31.5 C361.9,54.1 357.6,74.9 353.6,95.8 C353,98.9 354.3,102.3 354.7,105.6 C358.1,104.7 362,104.6 364.8,102.8 C369.4,99.8 373.4,95.7 378.8,91 C377.8,94.2 377.8,96.5 376.7,97.7 C370.2,104.6 363.1,111 353.5,113.5 C342.6,116.3 336.5,110.7 338.3,99.6 C339.5,92.2 341.1,84.9 342.4,77.5 C342.7,76 342.8,74.4 343,72.8 C337.7,80.9 333.2,89.3 327.2,96.4 C322.4,102.2 316.5,107.6 310,111.2 C296.6,118.8 284.7,111.6 285,96.3 C285.1,89 286.2,81.2 288.9,74.5 C296.9,54.8 309.5,38.6 331.3,33.7 C342.7,31.2 354.6,32.2 366.5,31.5 Z M350,43.9 C327.8,33.7 317.2,40.9 310,55.8 C304.9,66.5 301,77.6 300.6,89.7 C300.5,94.5 299.7,100.1 304.8,102.6 C309.7,104.9 313.7,101.1 317.2,98 C327.7,88.8 336.3,77.9 342.6,65.6 C346.1,58.8 347.7,51 350,43.9 Z" id="Shape"></path>
            <path d="M174.1,31.9 C169.7,53.3 165.7,73.2 161.7,93 C161.3,95 160.7,96.9 160.8,98.9 C160.9,101.1 160.9,104.1 162.2,105.1 C163.6,106.1 167,106 168.6,104.9 C174.6,100.9 180.2,96.2 187.1,91 C185.5,94.3 184.7,97.2 183,99.1 C176.9,105.6 170.2,111.2 161.2,113.4 C150.8,116 145.1,111.6 146.1,101 C146.9,92.6 148.9,84.3 150.4,76 C150.6,74.9 150.7,73.8 150.2,72.4 C149.5,73.6 148.8,74.9 148.2,76.1 C142.3,88 135.2,99 124.5,107.1 C121,109.8 116.9,112 112.7,113.2 C102.2,116.4 94.1,110.5 93,99.7 C91.2,80.8 98.9,65.3 110.7,51.5 C122.2,38.1 136.6,31.1 154.6,31.7 C161,32.1 167.4,31.9 174.1,31.9 Z M157,42.6 C151.6,41.4 146.4,39.8 141.1,39.2 C133.6,38.3 127.2,41.3 122.9,47.4 C113.1,61.4 107.9,77 108.2,94.1 C108.3,103.1 114.6,106.2 121.5,100.4 C139.2,85.3 153.9,68 157,42.6 Z" id="Shape"></path>
            <path d="M0.3,108.2 C4.2,104.6 7.7,101.5 11.3,98.2 C17.9,103.4 25.8,107.3 35,108.5 C48.5,110.3 60.1,102.3 61.2,90.1 C61.7,84.3 59.4,79.5 55.7,75.6 C49.9,69.6 43.7,64.2 37.6,58.5 C35.1,56.1 32.4,53.8 30,51.3 C20.7,42 19.4,30 26.6,18.8 C35.7,4.6 54.4,-2.2 71.8,2.3 C76.3,3.5 80.6,5.1 85.2,6.7 C84.1,12.5 83.3,17.8 81.9,23.1 C81.6,24.4 79.5,25.2 76.9,27.2 C77.7,16.6 73.7,10.6 65.3,8.2 C56.4,5.6 47.8,6.4 40.5,12.9 C33,19.7 31.8,29.8 38.5,37.4 C44.1,43.7 50.8,49.1 57,54.9 C60.9,58.6 65,62 68.3,66.1 C76.8,76.6 76,89.6 66.7,99.5 C52.1,115.1 27.4,119.4 5.2,110.3 C3.8,109.8 2.5,109.1 0.3,108.2 Z" id="Shape"></path>
        </g>
    </g>
</svg>